<?xml version="1.0" encoding="utf-8"?>
<!-- Generator: Adobe Illustrator 19.1.0, SVG Export Plug-In . SVG Version: 6.00 Build 0)  -->
<svg version="1.1" xmlns="http://www.w3.org/2000/svg" xmlns:xlink="http://www.w3.org/1999/xlink" x="0px" y="0px"
	 viewBox="0 0 466.1 252" style="enable-background:new 0 0 466.1 252;" xml:space="preserve">
<style type="text/css">
	.st0{fill:#010101;}
	.st1{fill:#030303;}
	.st2{fill:#FFFFFF;}
</style>
<g id="Layer_1">
	<path class="st0" d="M412.2,37.6h-28.9c-2.3,0-4.1,1.8-4.1,4.1v55.8c0,2.3,1.8,4.1,4.1,4.1h28.9c2.3,0,4.1-1.8,4.1-4.1V41.7
		C416.4,39.4,414.5,37.6,412.2,37.6z M397.8,98.8c-1.8,0-3.4-1.5-3.4-3.4s1.5-3.4,3.4-3.4c1.8,0,3.4,1.5,3.4,3.4
		S399.6,98.8,397.8,98.8z M412.2,87.2c0,1.1-0.9,2.1-2.1,2.1h-24.8c-1.1,0-2.1-0.9-2.1-2.1V47.9c0-1.1,0.9-2.1,2.1-2.1h24.8
		c1.1,0,2.1,0.9,2.1,2.1V87.2z"/>
	<path id="gear-5-icon_1_" class="st1" d="M325.6,73.8v-9.1l-7.9-2.9c-0.6-1.9-1.2-3.8-2.2-5.5l3.7-7.7l-6.4-6.4l-7.7,3.7
		c-1.7-1-3.5-1.6-5.5-2.1l-2.9-7.9h-9.1l-2.9,7.9c-1.9,0.6-3.8,1.2-5.5,2.2l-7.7-3.7l-6.4,6.4l3.7,7.7c-1,1.7-1.9,3.5-2.4,5.5
		l-8.2,2.9v9.1l8.2,2.9c0.6,1.9,1.4,3.8,2.4,5.5l-3.6,7.7l6.4,6.4l7.7-3.7c1.7,1,3.6,1.9,5.5,2.4l2.9,8.2h9.1l2.9-8.2
		c1.9-0.6,3.8-1.4,5.5-2.4l7.7,3.6l6.4-6.4l-3.7-7.7c1-1.7,1.6-3.6,2.1-5.5L325.6,73.8z M292.3,81.6c-6.8,0-12.3-5.5-12.3-12.3
		c0-6.8,5.5-12.3,12.3-12.3c6.8,0,12.3,5.5,12.3,12.3C304.6,76.1,299.1,81.6,292.3,81.6z"/>
	<g>
		<path class="st0" d="M115.4,66.1c2.9-2.9,1.3-7.9-2.7-8.5L96,55.2c-1.6-0.2-3-1.2-3.7-2.7l-7.4-15.1c-1.8-3.7-7.1-3.7-8.9,0
			l-7.4,15.1c-0.7,1.5-2.1,2.5-3.7,2.7l-16.6,2.4c-4.1,0.6-5.7,5.6-2.7,8.5l12,11.7c1.2,1.1,1.7,2.8,1.4,4.4L56,98.8
			c-0.7,4.1,3.6,7.1,7.2,5.2l6-3.1V69.4c0-1,0.7-1.8,1.7-1.9c2-0.3,4.4-0.4,7.3-0.4c4.7,0,8.1,1.1,10.2,3c2,1.7,3.2,4.4,3.2,7.6
			c0,3.3-1,5.9-2.8,7.8c-2.5,2.6-6.5,4-11.1,4c-0.6,0-1.2,0-1.7,0c-1.1-0.1-2.1,0.8-2.1,1.9v7l4.2-2.2c1.4-0.8,3.2-0.8,4.6,0
			l14.9,7.8c3.6,1.9,7.9-1.2,7.2-5.2l-2.8-16.6c-0.3-1.6,0.3-3.3,1.4-4.4L115.4,66.1z"/>
		<path class="st0" d="M77.8,85.7c5.7,0,9.1-2.8,9.1-7.8c0-4.8-3.4-7.1-8.6-7.1c-1,0-1.9,0-2.7,0.1c-1,0.1-1.7,0.9-1.7,1.9v10.9
			c0,1,0.8,1.9,1.8,1.9C76.3,85.7,77,85.7,77.8,85.7z"/>
	</g>
	<g>
		<path class="st2" d="M442.7,161c2.9-2.9,1.3-7.9-2.7-8.5l-16.6-2.4c-1.6-0.2-3-1.2-3.7-2.7l-7.4-15.1c-1.8-3.7-7.1-3.7-8.9,0
			l-7.4,15.1c-0.7,1.5-2.1,2.5-3.7,2.7l-16.6,2.4c-4.1,0.6-5.7,5.6-2.7,8.5l12,11.7c1.2,1.1,1.7,2.8,1.4,4.4l-2.8,16.6
			c-0.7,4.1,3.6,7.1,7.2,5.2l6-3.1v-31.5c0-1,0.7-1.8,1.7-1.9c2-0.3,4.4-0.4,7.3-0.4c4.7,0,8.1,1.1,10.2,3c2,1.7,3.2,4.4,3.2,7.6
			c0,3.3-1,5.9-2.8,7.8c-2.5,2.6-6.5,4-11.1,4c-0.6,0-1.2,0-1.7,0c-1.1-0.1-2.1,0.8-2.1,1.9v7l4.2-2.2c1.4-0.8,3.2-0.8,4.6,0
			l14.9,7.8c3.6,1.9,7.9-1.2,7.2-5.2l-2.8-16.6c-0.3-1.6,0.3-3.3,1.4-4.4L442.7,161z"/>
		<path class="st2" d="M405.1,180.6c5.7,0,9.1-2.8,9.1-7.8c0-4.8-3.4-7.1-8.6-7.1c-1,0-1.9,0-2.7,0.1c-1,0.1-1.7,0.9-1.7,1.9v10.9
			c0,1,0.8,1.9,1.8,1.9C403.6,180.6,404.3,180.6,405.1,180.6z"/>
	</g>
</g>
<g id="Isolation_Mode">
	<path class="st0" d="M212.5,61.8c-3.3-6.4-9.7-10.4-16.9-10.7c-3.3-0.1-6.5,0.6-9.4,2c-2.8-4.1-7.3-6.6-12.3-6.8
		c-8.2-0.3-15.2,5.9-16.1,13.9c-7.1,1.3-12.6,7.4-12.8,14.8c-0.3,8.3,6,15.2,14.4,15.9l23.1,0.8l0.3-8.6c0-0.3-0.3-0.6-0.6-0.6
		l-3-0.1c-0.6,0-0.8-0.7-0.4-1.1l7-6.5c0.3-0.2,0.6-0.2,0.9,0l6.6,7.1c0.4,0.4,0.1,1.1-0.5,1.1l-3-0.1c-0.3,0-0.6,0.3-0.7,0.6
		l-0.3,8.6l24.8,0.9l0.1,0c7.6-1,13.3-7.2,13.6-14.9C227.7,69.4,221,62.2,212.5,61.8z"/>
</g>
<g id="Icons">
	<path class="st2" d="M306.3,163.9h3.7v-3.6c0-1.6,0-4.1,1.2-5.6c1.2-1.6,2.9-2.7,5.8-2.7c4.7,0,6.7,0.7,6.7,0.7l-0.9,5.5
		c0,0-1.6-0.4-3-0.4c-1.4,0-2.7,0.5-2.7,2v4.2h5.9l-0.4,5.4H317V188h-7v-18.7h-3.7V163.9z"/>
	<path class="st2" d="M236,152H214c-3.8,0-7,3.1-7,7v7.3V181c0,3.8,3.1,7,7,7H236c3.8,0,7-3.1,7-7v-14.7v-7.3
		C243,155.1,239.9,152,236,152z M238,156.1l0.8,0v0.8v5.3l-6.1,0l0-6.1L238,156.1z M219.9,166.3c1.1-1.6,3-2.6,5.1-2.6
		c2.1,0,4,1,5.1,2.6c0.8,1,1.2,2.3,1.2,3.7c0,3.5-2.8,6.3-6.3,6.3c-3.5,0-6.3-2.8-6.3-6.3C218.7,168.6,219.1,167.3,219.9,166.3z
		 M239.5,181c0,1.9-1.5,3.4-3.5,3.4H214c-1.9,0-3.4-1.5-3.4-3.4v-14.7h5.4c-0.5,1.1-0.7,2.4-0.7,3.7c0,5.4,4.4,9.8,9.8,9.8
		c5.4,0,9.8-4.4,9.8-9.8c0-1.3-0.3-2.6-0.7-3.7h5.4V181z"/>
	<path class="st2" d="M153,158.8c-1.3,0.6-2.7,1-4.2,1.2c1.5-0.9,2.7-2.4,3.2-4.1c-1.4,0.8-3,1.5-4.7,1.8c-1.3-1.4-3.3-2.3-5.4-2.3
		c-4.1,0-7.4,3.3-7.4,7.4c0,0.6,0.1,1.1,0.2,1.7c-6.1-0.3-11.6-3.2-15.2-7.7c-0.6,1.1-1,2.4-1,3.7c0,2.6,1.3,4.8,3.3,6.1
		c-1.2,0-2.3-0.4-3.3-0.9v0.1c0,3.6,2.5,6.6,5.9,7.2c-0.6,0.2-1.3,0.3-1.9,0.3c-0.5,0-0.9,0-1.4-0.1c0.9,2.9,3.7,5.1,6.9,5.1
		c-2.5,2-5.7,3.2-9.2,3.2c-0.6,0-1.2,0-1.8-0.1c3.3,2.1,7.2,3.3,11.3,3.3c13.6,0,21-11.3,21-21c0-0.3,0-0.6,0-1
		C150.8,161.6,152,160.3,153,158.8"/>
	<path class="st2" d="M39,186.2c-4.3,0-7.4-2.7-7.4-6c0-3.2,3.8-5.8,8.1-5.8c1,0,1.9,0.2,2.8,0.4c2.3,1.6,4,2.5,4.5,4.4
		c0.1,0.4,0.1,0.8,0.1,1.2C47.1,183.6,45.1,186.2,39,186.2 M40.2,167.1c-2.9-0.1-5.6-3.2-6.1-7c-0.5-3.8,1.4-6.7,4.3-6.6
		c2.9,0.1,5.6,3.1,6.1,6.9C45,164.2,43,167.2,40.2,167.1 M46.1,172.7c-1-0.7-2.9-2.4-2.9-3.5c0-1.2,0.3-1.8,2.1-3.2
		c1.8-1.4,3.1-3.5,3.1-5.8c0-2.8-1.2-5.5-3.6-6.4h3.5l2.5-1.8H39.8c-5,0-9.7,3.8-9.7,8.2c0,4.5,3.4,8.1,8.5,8.1c0.4,0,0.7,0,1,0
		c-0.3,0.6-0.6,1.3-0.6,2.1c0,1.2,0.7,2.3,1.5,3.1c-0.6,0-1.3,0-1.9,0c-6.2,0-11,3.9-11,8c0,4,5.2,6.5,11.4,6.5c7.1,0,11-4,11-8
		C50,176.7,49.1,174.8,46.1,172.7 M62.3,167.4H58v-4.3h-3.5v4.3h-4.3v3.5h4.3v4.3H58v-4.3h4.3V167.4z"/>
</g>
</svg>
